<?xml version="1.0" standalone="no"?>
<!DOCTYPE svg PUBLIC "-//W3C//DTD SVG 20010904//EN"
 "http://www.w3.org/TR/2001/REC-SVG-20010904/DTD/svg10.dtd">
<svg version="1.0" xmlns="http://www.w3.org/2000/svg"
 width="402.000000pt" height="255.000000pt" viewBox="0 0 402.000000 255.000000"
 preserveAspectRatio="xMidYMid meet">

<g transform="translate(0.000000,255.000000) scale(0.100000,-0.100000)"
fill="#000000" stroke="none">
<path d="M1820 2168 c-113 -60 -191 -60 -455 -4 -207 45 -329 30 -374 -45 -11
-17 -22 -58 -26 -90 l-7 -59 -224 0 -224 0 0 -95 0 -96 -79 -77 c-93 -91 -143
-183 -167 -307 -41 -208 41 -450 192 -567 l54 -43 0 -102 0 -103 225 0 224 0
7 -61 c8 -73 43 -120 102 -140 57 -20 186 -13 318 16 236 54 315 52 434 -8
l65 -32 65 32 c117 59 225 61 430 8 131 -34 291 -36 348 -6 34 18 72 71 72
101 0 15 3 42 6 59 l7 31 223 0 224 0 0 103 0 102 51 40 c126 100 202 265 203
445 1 180 -52 311 -175 432 l-79 77 0 96 0 95 -225 0 -224 0 -7 59 c-8 76 -31
113 -86 140 -61 29 -161 28 -313 -5 -264 -57 -336 -56 -460 5 -34 17 -64 31
-66 30 -2 0 -29 -14 -59 -31z m-415 -54 c169 -41 302 -40 395 0 36 16 74 29
85 29 11 0 49 -13 85 -29 59 -26 75 -29 175 -28 86 0 133 6 215 27 126 33 270
45 323 28 55 -19 74 -49 82 -136 l7 -75 224 0 224 0 0 -88 0 -88 66 -59 c109
-96 161 -193 184 -343 29 -182 -50 -388 -190 -498 l-59 -46 -3 -92 -3 -91
-222 -3 -222 -2 -7 -72 c-6 -58 -12 -77 -35 -102 l-27 -31 -124 1 c-96 0 -146
6 -228 26 -58 15 -127 29 -155 33 -69 9 -178 -10 -251 -44 l-60 -28 -48 24
c-69 35 -178 56 -251 48 -33 -3 -107 -18 -165 -32 -68 -16 -146 -27 -221 -30
l-116 -5 -34 30 c-30 27 -35 38 -44 107 l-10 77 -222 -2 -223 -1 0 94 0 93
-51 38 c-203 155 -263 449 -143 693 29 57 54 90 115 147 l79 73 0 86 0 87 224
0 223 0 7 73 c12 124 46 150 191 143 50 -2 144 -17 210 -32z"/>
</g>
</svg>
